<?xml version="1.0" encoding="utf-8"?>
<!-- Generator: Adobe Illustrator 22.0.1, SVG Export Plug-In . SVG Version: 6.00 Build 0)  -->
<svg xmlns="http://www.w3.org/2000/svg" xmlns:xlink="http://www.w3.org/1999/xlink" version="1.1" id="Layer_2" x="0px" y="0px" viewBox="0 0 256 256" style="enable-background:new 0 0 256 256;" xml:space="preserve" width="512" height="512">
<style type="text/css">
	.st0{fill:#3A312A;}
	.st1{fill:#D7E057;}
	.st2{fill:#F16C7A;}
	.st3{fill:#8AC6DD;}
	.st4{fill:#CE4E61;}
	.st5{fill:#68A8BC;}
	.st6{fill:#87796F;}
	.st7{fill:#FCE8CB;}
	.st8{fill:#6B5B51;}
	.st9{fill:#B9BC39;}
	.st10{fill:#CCAE8B;}
	.st11{fill:#8AC6DD;stroke:#3A312A;stroke-width:3;stroke-linecap:round;stroke-linejoin:round;stroke-miterlimit:10;}
	.st12{fill:#F5978A;}
	.st13{fill-rule:evenodd;clip-rule:evenodd;fill:#D7E057;}
	.st14{fill-rule:evenodd;clip-rule:evenodd;fill:#FCE8CB;}
</style>
<g>
	<g>
		<g>
			<path class="st6" d="M201.997,93.828h-42.76c-3.289,0-5.955,2.666-5.955,5.955s2.666,5.955,5.955,5.955h42.76     c3.289,0,5.955-2.666,5.955-5.955S205.286,93.828,201.997,93.828z"/>
		</g>
	</g>
	<g>
		<g>
			<path class="st0" d="M201.996,92.328h-42.759c-4.111,0-7.456,3.345-7.456,7.456s3.345,7.455,7.456,7.455h42.759     c4.111,0,7.456-3.344,7.456-7.455S206.107,92.328,201.996,92.328z M201.996,104.238h-42.759c-2.457,0-4.456-1.999-4.456-4.455     c0-2.457,1.999-4.456,4.456-4.456h42.759c2.457,0,4.456,1.999,4.456,4.456C206.452,102.24,204.453,104.238,201.996,104.238z"/>
		</g>
	</g>
	<g>
		<g>
			<path class="st7" d="M238.397,220.495l-39.97-69.22v-45.54h-35.62v45.54l-39.97,69.22c-4.93,8.55,1.23,19.24,11.1,19.24h93.36     C237.167,239.735,243.327,229.045,238.397,220.495z"/>
		</g>
	</g>
	<g>
		<g>
			<path class="st0" d="M239.695,219.745l-39.769-68.872v-45.138c0-0.829-0.672-1.5-1.5-1.5h-35.62c-0.828,0-1.5,0.671-1.5,1.5     v45.138l-39.77,68.873c-2.588,4.489-2.586,9.848,0.006,14.334c2.588,4.48,7.222,7.154,12.394,7.154h93.36     c5.173,0,9.806-2.675,12.395-7.155C242.283,229.593,242.284,224.235,239.695,219.745z M237.093,232.579     c-2.045,3.542-5.707,5.656-9.796,5.656h-93.36c-4.088,0-7.75-2.114-9.796-5.655c-2.05-3.548-2.051-7.786-0.005-11.335     l39.97-69.22c0.132-0.228,0.201-0.487,0.201-0.75v-44.04h32.62v44.04c0,0.263,0.069,0.522,0.201,0.75l39.969,69.22     C239.145,224.794,239.143,229.031,237.093,232.579z"/>
		</g>
	</g>
	<g>
		<g>
			<path class="st1" d="M238.396,220.5l-31.235-54.101h-53.089L122.837,220.5c-4.935,8.548,1.234,19.232,11.104,19.232h93.352     C237.163,239.732,243.331,229.047,238.396,220.5z"/>
		</g>
	</g>
	<g>
		<g>
			<path class="st0" d="M239.695,219.75l-31.235-54.101c-0.268-0.464-0.763-0.75-1.299-0.75h-53.089     c-0.536,0-1.031,0.286-1.299,0.75l-31.235,54.101c-2.589,4.484-2.589,9.838,0,14.322c2.589,4.483,7.226,7.16,12.402,7.16h93.353     c5.178,0,9.813-2.677,12.402-7.16C242.284,229.587,242.284,224.234,239.695,219.75z M237.098,232.571     c-2.047,3.544-5.712,5.66-9.805,5.66H133.94c-4.093,0-7.758-2.116-9.804-5.661c-2.047-3.544-2.047-7.777-0.001-11.321     l30.803-53.351h51.356l30.803,53.351C239.144,224.794,239.144,229.027,237.098,232.571z"/>
		</g>
	</g>
	<g>
		<g>
			<path class="st2" d="M118.655,155.065H23.912c-5.102,8.381-8.045,18.219-8.045,28.75c0,30.606,24.811,55.417,55.417,55.417     s55.417-24.811,55.417-55.417C126.7,173.284,123.756,163.446,118.655,155.065z"/>
		</g>
	</g>
	<g>
		<g>
			<path class="st0" d="M119.937,154.285c-0.272-0.447-0.758-0.72-1.281-0.72H23.912c-0.523,0-1.009,0.273-1.281,0.72     c-5.406,8.881-8.264,19.092-8.264,29.53c0,31.384,25.532,56.917,56.916,56.917s56.917-25.533,56.917-56.917     C128.2,173.377,125.343,163.166,119.937,154.285z M71.283,237.731c-29.729,0-53.916-24.187-53.916-53.917     c0-9.606,2.555-19.009,7.396-27.25h93.042c4.841,8.241,7.396,17.644,7.396,27.25C125.2,213.544,101.013,237.731,71.283,237.731z"/>
		</g>
	</g>
	<g>
		<g>
			<path class="st6" d="M92.663,49.494h-42.76c-3.289,0-5.955,2.666-5.955,5.955s2.666,5.955,5.955,5.955h42.76     c3.289,0,5.955-2.666,5.955-5.955S95.952,49.494,92.663,49.494z"/>
		</g>
	</g>
	<g>
		<g>
			<path class="st0" d="M92.663,47.994h-42.76c-4.11,0-7.455,3.345-7.455,7.456s3.345,7.456,7.455,7.456h42.76     c4.111,0,7.456-3.345,7.456-7.456S96.774,47.994,92.663,47.994z M92.663,59.905h-42.76c-2.456,0-4.455-1.999-4.455-4.456     s1.999-4.456,4.455-4.456h42.76c2.457,0,4.456,1.999,4.456,4.456S95.12,59.905,92.663,59.905z"/>
		</g>
	</g>
	<g>
		<g>
			<path class="st7" d="M89.094,132.093V61.405h-35.62v70.688c-21.796,7.415-37.484,28.041-37.484,52.345     c0,30.538,24.756,55.294,55.294,55.294s55.294-24.756,55.294-55.294C126.577,160.134,110.89,139.507,89.094,132.093z"/>
		</g>
	</g>
	<g>
		<g>
			<path class="st0" d="M90.594,131.029V61.405c0-0.829-0.672-1.5-1.5-1.5h-35.62c-0.828,0-1.5,0.671-1.5,1.5v35.821     c0,0.829,0.672,1.5,1.5,1.5s1.5-0.671,1.5-1.5V62.905h32.62v69.188c0,0.642,0.409,1.213,1.017,1.42     c21.813,7.42,36.467,27.885,36.467,50.925c0,29.662-24.132,53.793-53.794,53.793S17.489,214.1,17.489,184.438     c0-23.04,14.655-43.505,36.468-50.925c0.607-0.207,1.017-0.778,1.017-1.42v-19.689c0-0.829-0.672-1.5-1.5-1.5s-1.5,0.671-1.5,1.5     v18.625c-22.467,8.116-37.484,29.443-37.484,53.409c0,31.316,25.478,56.793,56.794,56.793s56.794-25.478,56.794-56.793     C128.077,160.472,113.061,139.146,90.594,131.029z"/>
		</g>
	</g>
	<g>
		<g>
			<path class="st2" d="M117.802,154.565H24.765c-5.545,8.617-8.775,18.865-8.775,29.873c0,30.538,24.756,55.294,55.294,55.294     s55.294-24.756,55.294-55.294C126.577,173.43,123.347,163.182,117.802,154.565z"/>
		</g>
	</g>
	<g>
		<g>
			<path class="st0" d="M119.063,153.753c-0.276-0.429-0.752-0.688-1.262-0.688H24.765c-0.51,0-0.985,0.259-1.262,0.688     c-5.896,9.164-9.014,19.774-9.014,30.685c0,31.316,25.478,56.793,56.794,56.793s56.794-25.478,56.794-56.793     C128.077,173.528,124.96,162.917,119.063,153.753z M71.283,238.231c-29.662,0-53.794-24.132-53.794-53.793     c0-10.062,2.799-19.853,8.102-28.373h91.385c5.303,8.52,8.102,18.312,8.102,28.373C125.077,214.1,100.945,238.231,71.283,238.231     z"/>
		</g>
	</g>
	<g>
		<g>
			<path class="st7" d="M110.473,28.175v193.08c0,9.84,7.97,17.81,17.81,17.81s17.81-7.97,17.81-17.81V28.175H110.473z"/>
		</g>
	</g>
	<g>
		<g>
			<path class="st0" d="M146.094,26.675h-35.62c-0.828,0-1.5,0.671-1.5,1.5v10.414c0,0.829,0.672,1.5,1.5,1.5s1.5-0.671,1.5-1.5     v-8.914h32.62v191.58c0,8.994-7.316,16.31-16.311,16.31c-8.993,0-16.31-7.316-16.31-16.31V53.791c0-0.829-0.672-1.5-1.5-1.5     s-1.5,0.671-1.5,1.5v167.464c0,10.647,8.662,19.31,19.31,19.31s19.311-8.663,19.311-19.31V28.175     C147.594,27.346,146.922,26.675,146.094,26.675z"/>
		</g>
	</g>
	<g>
		<g>
			<path class="st3" d="M110.473,65.065v156.19c0,9.84,7.97,17.81,17.81,17.81s17.81-7.97,17.81-17.81V65.065H110.473z"/>
		</g>
	</g>
	<g>
		<g>
			<path class="st0" d="M146.094,63.565h-35.62c-0.828,0-1.5,0.671-1.5,1.5v156.19c0,10.647,8.662,19.31,19.31,19.31     s19.311-8.663,19.311-19.31V65.065C147.594,64.236,146.922,63.565,146.094,63.565z M144.594,221.255     c0,8.994-7.316,16.31-16.311,16.31c-8.993,0-16.31-7.316-16.31-16.31V66.565h32.62V221.255z"/>
		</g>
	</g>
	<g>
		<g>
			<path class="st6" d="M149.663,16.265h-42.76c-3.289,0-5.955,2.666-5.955,5.955s2.666,5.955,5.955,5.955h42.76     c3.289,0,5.955-2.666,5.955-5.955S152.952,16.265,149.663,16.265z"/>
		</g>
	</g>
	<g>
		<g>
			<path class="st0" d="M149.663,14.765h-42.76c-4.11,0-7.455,3.345-7.455,7.456s3.345,7.455,7.455,7.455h42.76     c4.111,0,7.456-3.344,7.456-7.455S153.774,14.765,149.663,14.765z M149.663,26.676h-42.76c-2.456,0-4.455-1.999-4.455-4.455     c0-2.457,1.999-4.456,4.455-4.456h42.76c2.457,0,4.456,1.999,4.456,4.456C154.119,24.677,152.12,26.676,149.663,26.676z"/>
		</g>
	</g>
	<g>
		<g>
			<path class="st1" d="M208.65,33.835c-0.974,11.564-13.025,13.389-13.025,13.389c10.347,0.487,12.925,14.059,12.925,14.059     c0.221-9.677,13.321-14.202,13.321-14.202C212.058,46.495,208.65,33.835,208.65,33.835z"/>
		</g>
	</g>
	<g>
		<g>
			<path class="st0" d="M221.961,45.584c-8.604-0.515-11.832-12.024-11.863-12.141c-0.19-0.702-0.855-1.157-1.584-1.102     c-0.725,0.066-1.298,0.642-1.359,1.367c-0.859,10.215-11.313,11.964-11.754,12.033c-0.763,0.115-1.313,0.79-1.273,1.561     c0.04,0.77,0.657,1.384,1.428,1.421c9.028,0.425,11.499,12.718,11.522,12.842c0.138,0.711,0.76,1.217,1.473,1.217     c0.042,0,0.084-0.001,0.126-0.005c0.765-0.064,1.357-0.693,1.375-1.459c0.193-8.509,12.19-12.777,12.312-12.819     c0.676-0.235,1.092-0.914,0.994-1.623S222.675,45.627,221.961,45.584z M208.396,55.93c-1.357-3.13-3.709-6.907-7.587-8.876     c2.931-1.405,6.408-3.913,8.201-8.272c1.551,3.071,4.2,6.88,8.334,8.722C214.337,49.144,210.422,51.909,208.396,55.93z"/>
		</g>
	</g>
	<g>
		<g>
			<path class="st1" d="M186.951,50.816c-0.689,8.179-9.212,9.47-9.212,9.47c7.318,0.344,9.142,9.944,9.142,9.944     c0.156-6.844,9.422-10.045,9.422-10.045C189.362,59.77,186.951,50.816,186.951,50.816z"/>
		</g>
	</g>
	<g>
		<g>
			<path class="st0" d="M196.393,58.688c-5.767-0.345-7.972-8.185-7.993-8.264c-0.19-0.702-0.865-1.159-1.582-1.102     c-0.726,0.065-1.3,0.642-1.361,1.368c-0.579,6.871-7.646,8.067-7.942,8.114c-0.763,0.115-1.313,0.79-1.273,1.561     c0.04,0.77,0.657,1.384,1.428,1.421c6.035,0.284,7.724,8.644,7.739,8.726c0.136,0.712,0.759,1.22,1.473,1.22     c0.041,0,0.083-0.001,0.125-0.005c0.765-0.063,1.358-0.694,1.376-1.461c0.13-5.709,8.331-8.634,8.412-8.662     c0.676-0.234,1.093-0.913,0.996-1.622C197.691,59.272,197.106,58.73,196.393,58.688z M186.808,65.483     c-0.924-1.886-2.34-3.947-4.447-5.28c1.855-1.041,3.697-2.63,4.871-4.917c1.057,1.874,2.654,3.955,4.941,5.224     C190.322,61.611,188.184,63.25,186.808,65.483z"/>
		</g>
	</g>
	<g>
		<g>
			<path class="st1" d="M186.951,24.158c-0.689,8.179-9.212,9.471-9.212,9.471c7.318,0.344,9.142,9.944,9.142,9.944     c0.156-6.844,9.422-10.045,9.422-10.045C189.362,33.112,186.951,24.158,186.951,24.158z"/>
		</g>
	</g>
	<g>
		<g>
			<path class="st0" d="M196.393,32.03c-5.767-0.345-7.972-8.186-7.993-8.265c-0.19-0.702-0.865-1.158-1.582-1.102     c-0.726,0.065-1.3,0.642-1.361,1.368c-0.579,6.871-7.646,8.067-7.942,8.114c-0.763,0.115-1.313,0.79-1.273,1.561     c0.04,0.77,0.657,1.384,1.428,1.421c6.035,0.284,7.724,8.644,7.739,8.726c0.136,0.712,0.759,1.22,1.473,1.22     c0.041,0,0.083-0.001,0.125-0.005c0.765-0.063,1.358-0.694,1.376-1.461c0.13-5.709,8.331-8.634,8.412-8.662     c0.676-0.234,1.093-0.913,0.996-1.622C197.691,32.615,197.106,32.073,196.393,32.03z M186.808,38.826     c-0.924-1.886-2.34-3.947-4.447-5.28c1.855-1.041,3.697-2.63,4.871-4.917c1.057,1.874,2.654,3.955,4.941,5.224     C190.323,34.954,188.184,36.593,186.808,38.826z"/>
		</g>
	</g>
	<g>
		<g>
			<path class="st8" d="M201.993,95.325h-9c2.46,0,4.46,2,4.46,4.46c0,2.45-2,4.45-4.46,4.45h9c2.46,0,4.46-2,4.46-4.45     C206.453,97.325,204.453,95.325,201.993,95.325z"/>
		</g>
	</g>
	<g>
		<g>
			<path class="st10" d="M197.124,152.025c-0.13-0.23-0.2-0.49-0.2-0.75v-44.04h-9v44.04c0,0.26,0.07,0.52,0.2,0.75l7.44,12.87h9     L197.124,152.025z"/>
		</g>
	</g>
	<g>
		<g>
			<path class="st9" d="M237.094,221.245l-30.8-53.35h-9l30.8,53.35c2.05,3.55,2.05,7.78,0,11.33c-2.04,3.54-5.71,5.66-9.8,5.66h9     c4.09,0,7.76-2.12,9.8-5.66C239.143,229.025,239.143,224.795,237.094,221.245z"/>
		</g>
	</g>
	<g>
		<g>
			<path class="st8" d="M92.663,50.995h-9c2.46,0,4.45,2,4.45,4.45c0,2.46-1.99,4.46-4.45,4.46h5.43c0,0,0,0,0.01,0h3.56     c2.46,0,4.45-2,4.45-4.46C97.114,52.995,95.124,50.995,92.663,50.995z"/>
		</g>
	</g>
	<g>
		<g>
			<path class="st10" d="M88.614,133.515c-0.61-0.21-1.02-0.78-1.02-1.42v-69.19h-9v69.19c0,0.64,0.41,1.21,1.02,1.42     c7.82,2.66,14.72,7.01,20.36,12.55v7h9v-7C103.333,140.525,96.433,136.175,88.614,133.515z"/>
		</g>
	</g>
	<g>
		<g>
			<path class="st4" d="M108.973,221.255v-65.19h-9v65.19c0,0.49,0.04,0.97,0.07,1.45c-8.72,8.6-20.35,14.27-33.26,15.34     c1.48,0.13,2.98,0.19,4.5,0.19c14.7,0,28.04-5.94,37.76-15.53C109.013,222.225,108.973,221.745,108.973,221.255z"/>
		</g>
	</g>
	<g>
		<g>
			<rect x="135.594" y="29.675" class="st10" width="9" height="33.89"/>
		</g>
	</g>
	<g>
		<g>
			<path class="st5" d="M135.594,66.565v154.69c0,7.31-4.83,13.51-11.46,15.58c-0.12,0.04-0.23,0.07-0.35,0.1     c1.43,0.41,2.94,0.63,4.5,0.63c1.69,0,3.31-0.26,4.85-0.73c6.63-2.07,11.46-8.27,11.46-15.58V66.565H135.594z"/>
		</g>
	</g>
	<g>
		<g>
			<path class="st8" d="M149.663,17.765h-9c2.46,0,4.45,2,4.45,4.46c0,2.45-1.99,4.45-4.45,4.45h9c2.46,0,4.45-2,4.45-4.45     C154.114,19.765,152.124,17.765,149.663,17.765z"/>
		</g>
	</g>
</g>
</svg>
